<svg width="139" height="133" viewBox="0 0 139 133" fill="none" xmlns="http://www.w3.org/2000/svg">
<path d="M38.6719 45.8454L62.3636 1.21688C64.5675 -0.987004 67.3223 0.298593 68.4242 1.21688C91.0139 41.9886 136.524 124.414 137.846 127.94C139.169 131.466 136.193 132.715 134.541 132.899H2.85877C-1.98977 130.695 0.838545 127.205 2.85877 125.736L94.3198 67.3333C95.6054 66.415 97.9562 64.358 97.0746 63.4765C96.3185 62.7204 94.6979 62.9911 93.6725 63.3151C93.6192 63.3397 93.4531 63.3981 93.2178 63.4765C93.3485 63.4242 93.5023 63.3689 93.6725 63.3151C93.9937 63.1671 90.2216 64.2446 72.8319 69.5371C52.5562 75.708 41.6103 72.1083 38.6719 69.5371C32.0602 64.2478 35.917 51.5388 38.6719 45.8454Z" fill="#8255FF"/>
<path d="M112.581 29.5328C112.149 28.2095 110.277 28.2095 109.845 29.5328L107.545 36.5727C107.425 36.9396 107.163 37.243 106.817 37.4148L102.462 39.579C101.314 40.1491 101.428 41.8213 102.641 42.2316L106.584 43.5646C107.064 43.7268 107.423 44.1295 107.53 44.6248L109.806 55.1811C110.132 56.6959 112.293 56.6959 112.62 55.1811L114.898 44.615C115.003 44.125 115.356 43.7253 115.829 43.5597L121.431 41.5999C122.765 41.1331 122.697 39.2238 121.334 38.8525L115.817 37.3503C115.349 37.223 114.977 36.869 114.827 36.4083L112.581 29.5328Z" fill="#8255FF"/>
</svg>
